<?xml version="1.0" encoding="utf-8"?>
<!-- Generator: Adobe Illustrator 27.0.0, SVG Export Plug-In . SVG Version: 6.00 Build 0)  -->
<svg version="1.1" id="Layer_1" xmlns="http://www.w3.org/2000/svg" xmlns:xlink="http://www.w3.org/1999/xlink" x="0px" y="0px"
	 viewBox="0 0 280 280" style="enable-background:new 0 0 280 280;" xml:space="preserve">
<style type="text/css">
	.st0{opacity:0.5;}
	.st1{fill:none;stroke:#F7F7F7;stroke-width:3.4314;stroke-miterlimit:1.3725;}
</style>
<g id="Layer_1_00000061443680683190590520000000922283500387153579_">
	<g id="_x3C_title_x3E_">
	</g>
	<g id="_x3C_desc_x3E_">
	</g>
</g>
<g id="Layer_2_00000028297190176600285130000013397809899648193460_" class="st0">
	<g id="_x3C_Group_x3E_">
		<path id="_x3C_Compound_Path_x3E_" class="st1" d="M268,192.1c-21.3,51.5-71.6,85.1-127.4,85.1c-55.8,0-106.1-33.6-127.4-85.1
			C-8.1,140.6,3.7,81.3,43.1,41.9C97-12,184.3-12,238.1,41.9C277.6,81.3,289.4,140.6,268,192.1L268,192.1z M138.8,163.6l-22.7-22.7
			H51.4l87.4,87.4V163.6z M179.5,63.7l-64.3-0.4l-63.9,63.9H116L179.5,63.7z M216.5,164.6l-0.4-64.3l-63.4,63.4v64.8L216.5,164.6z"
			/>
	</g>
</g>
</svg>
