<?xml version="1.0" encoding="utf-8"?>
<!-- Generator: Adobe Illustrator 27.0.0, SVG Export Plug-In . SVG Version: 6.00 Build 0)  -->
<svg version="1.1" xmlns="http://www.w3.org/2000/svg" xmlns:xlink="http://www.w3.org/1999/xlink" x="0px" y="0px"
	 viewBox="0 0 595.3 841.9" style="enable-background:new 0 0 595.3 841.9;" xml:space="preserve">
<style type="text/css">
	.st0{fill:#FFC403;}
	.st1{fill:#231F20;}
	.st2{fill:#FBF9F7;}
	.st3{opacity:0.1;fill:#606060;}
</style>
<symbol  id="New_Symbol_20" viewBox="-2000 -79.3 4000 158.6">
	<g id="XMLID_8849_">
		<rect id="XMLID_8872_" x="-2000" y="-79.3" class="st0" width="2000" height="158.6"/>
		<path id="XMLID_8850_" class="st1" d="M-1631.6,79.3l157.9-158.6h52.6l-157.9,158.6H-1631.6z M-1526.3,79.3l157.9-158.6h52.6
			l-157.9,158.6H-1526.3z M-1421.1,79.3l157.9-158.6h52.6l-157.9,158.6H-1421.1z M-1105.3,79.3l157.9-158.6h52.6l-157.9,158.6
			H-1105.3z M-1210.5,79.3l157.9-158.6h52.6l-157.9,158.6H-1210.5z M-2000,26.5l105.3-105.8h52.6L-2000,79.3V26.5z M-1736.8,79.3
			l157.9-158.6h52.6l-157.9,158.6H-1736.8z M-2000-79.3L-2000-79.3l52.7,0l-52.7,52.9V-79.3z M-1842.1,79.3l157.9-158.6h52.6
			l-157.9,158.6H-1842.1z M-1947.4,79.3l157.9-158.6h52.6l-157.9,158.6H-1947.4z M-1315.8,79.3l157.9-158.6h52.6l-157.9,158.6
			H-1315.8z M-368.4,79.3l157.9-158.6h52.6L-315.8,79.3H-368.4z M-263.2,79.3l157.9-158.6h52.6L-210.5,79.3H-263.2z M-473.7,79.3
			l157.9-158.6h52.6L-421.1,79.3H-473.7z M-1000,79.3l157.9-158.6h52.6L-947.4,79.3H-1000z M-789.5,79.3l157.9-158.6h52.6
			L-736.8,79.3H-789.5z M-894.7,79.3l157.9-158.6h52.6L-842.1,79.3H-894.7z M-578.9,79.3L-421-79.3h52.6L-526.3,79.3H-578.9z
			 M-684.2,79.3l157.9-158.6h52.6L-631.6,79.3H-684.2z M-52.6,79.3L0,26.5v52.9H-52.6z M-157.9,79.3L0-79.3v52.9L-105.3,79.3H-157.9
			z"/>
	</g>
	<g id="XMLID_8615_">
		<rect id="XMLID_8848_" y="-79.3" class="st0" width="2000" height="158.6"/>
		<path id="XMLID_8616_" class="st1" d="M368.4,79.3L526.3-79.3H579L421.1,79.3H368.4z M473.7,79.3L631.6-79.3h52.6L526.3,79.3
			H473.7z M578.9,79.3L736.9-79.3h52.6L631.6,79.3H578.9z M894.7,79.3l157.9-158.6h52.6L947.4,79.3H894.7z M789.5,79.3L947.4-79.3
			h52.6L842.1,79.3H789.5z M0,26.5L105.3-79.3h52.6L0,79.3V26.5z M263.2,79.3L421.1-79.3h52.6L315.8,79.3H263.2z M0-79.3L0-79.3
			l52.7,0L0-26.4V-79.3z M157.9,79.3L315.8-79.3h52.6L210.5,79.3H157.9z M52.6,79.3L210.5-79.3h52.6L105.3,79.3H52.6z M684.2,79.3
			L842.1-79.3h52.6L736.8,79.3H684.2z M1631.6,79.3l157.9-158.6h52.6L1684.2,79.3H1631.6z M1736.8,79.3l157.9-158.6h52.6
			L1789.5,79.3H1736.8z M1526.3,79.3l157.9-158.6h52.6L1578.9,79.3H1526.3z M1000,79.3l157.9-158.6h52.6L1052.6,79.3H1000z
			 M1210.5,79.3l157.9-158.6h52.6L1263.2,79.3H1210.5z M1105.3,79.3l157.9-158.6h52.6L1157.9,79.3H1105.3z M1421.1,79.3L1579-79.3
			h52.6L1473.7,79.3H1421.1z M1315.8,79.3l157.9-158.6h52.6L1368.4,79.3H1315.8z M1947.4,79.3l52.6-52.9v52.9H1947.4z M1842.1,79.3
			L2000-79.3v52.9L1894.7,79.3H1842.1z"/>
	</g>
</symbol>
<symbol  id="New_Symbol_21" viewBox="-2000 -76.2 4000 152.5">
	<g id="XMLID_8764_">
		<rect id="XMLID_8876_" x="-2000" y="-76.2" class="st0" width="2000" height="152.5"/>
		<g id="XMLID_8765_">
			<g id="XMLID_8816_">
				<polygon id="XMLID_8875_" class="st1" points="-1923.8,0 -2000,-76.2 -2000,-25.7 -1974.3,0 -2000,25.7 -2000,76.2 				"/>
				<path id="XMLID_8826_" class="st1" d="M-1050.6,76.2l50.6-50.6v50.6H-1050.6z M-1000-76.2v50.6l-50.6-50.6H-1000z"/>
				<polygon id="XMLID_8825_" class="st1" points="-1823.8,0 -1900,-76.2 -1950.6,-76.2 -1874.3,0 -1950.6,76.2 -1900,76.2 				"/>
				<polygon id="XMLID_8824_" class="st1" points="-1723.8,0 -1800,-76.2 -1850.6,-76.2 -1774.3,0 -1850.6,76.2 -1800,76.2 				"/>
				<polygon id="XMLID_8823_" class="st1" points="-1623.8,0 -1700,-76.2 -1750.6,-76.2 -1674.3,0 -1750.6,76.2 -1700,76.2 				"/>
				<polygon id="XMLID_8822_" class="st1" points="-1523.8,0 -1600,-76.2 -1650.6,-76.2 -1574.3,0 -1650.6,76.2 -1600,76.2 				"/>
				<polygon id="XMLID_8821_" class="st1" points="-1423.8,0 -1500,-76.2 -1550.6,-76.2 -1474.3,0 -1550.6,76.2 -1500,76.2 				"/>
				<polygon id="XMLID_8820_" class="st1" points="-1323.8,0 -1400,-76.2 -1450.6,-76.2 -1374.3,0 -1450.6,76.2 -1400,76.2 				"/>
				<polygon id="XMLID_8819_" class="st1" points="-1223.8,0 -1300,-76.2 -1350.6,-76.2 -1274.3,0 -1350.6,76.2 -1300,76.2 				"/>
				<polygon id="XMLID_8818_" class="st1" points="-1123.8,0 -1200,-76.2 -1250.6,-76.2 -1174.3,0 -1250.6,76.2 -1200,76.2 				"/>
				<polygon id="XMLID_8817_" class="st1" points="-1023.8,0 -1100,-76.2 -1150.6,-76.2 -1074.3,0 -1150.6,76.2 -1100,76.2 				"/>
			</g>
			<g id="XMLID_8766_">
				<polygon id="XMLID_8793_" class="st1" points="-923.8,0 -1000,-76.2 -1000,-25.7 -974.3,0 -1000,25.7 -1000,76.2 				"/>
				<path id="XMLID_8776_" class="st1" d="M-50.6,76.2L0,25.7v50.6H-50.6z M0-76.2v50.6l-50.6-50.6H0z"/>
				<polygon id="XMLID_8775_" class="st1" points="-823.8,0 -900,-76.2 -950.6,-76.2 -874.3,0 -950.6,76.2 -900,76.2 				"/>
				<polygon id="XMLID_8774_" class="st1" points="-723.8,0 -800,-76.2 -850.6,-76.2 -774.3,0 -850.6,76.2 -800,76.2 				"/>
				<polygon id="XMLID_8773_" class="st1" points="-623.8,0 -700,-76.2 -750.6,-76.2 -674.3,0 -750.6,76.2 -700,76.2 				"/>
				<polygon id="XMLID_8772_" class="st1" points="-523.8,0 -600,-76.2 -650.6,-76.2 -574.3,0 -650.6,76.2 -600,76.2 				"/>
				<polygon id="XMLID_8771_" class="st1" points="-423.8,0 -500,-76.2 -550.6,-76.2 -474.3,0 -550.6,76.2 -500,76.2 				"/>
				<polygon id="XMLID_8770_" class="st1" points="-323.8,0 -400,-76.2 -450.6,-76.2 -374.3,0 -450.6,76.2 -400,76.2 				"/>
				<polygon id="XMLID_8769_" class="st1" points="-223.8,0 -300,-76.2 -350.6,-76.2 -274.3,0 -350.6,76.2 -300,76.2 				"/>
				<polygon id="XMLID_8768_" class="st1" points="-123.8,0 -200,-76.2 -250.6,-76.2 -174.3,0 -250.6,76.2 -200,76.2 				"/>
				<polygon id="XMLID_8767_" class="st1" points="-23.8,0 -100,-76.2 -150.6,-76.2 -74.3,0 -150.6,76.2 -100,76.2 				"/>
			</g>
		</g>
	</g>
	<g id="XMLID_1890_">
		<rect id="XMLID_8763_" y="-76.2" class="st0" width="2000" height="152.5"/>
		<g id="XMLID_1891_">
			<g id="XMLID_8624_">
				<polygon id="XMLID_8762_" class="st1" points="76.2,0 0,-76.2 0,-25.7 25.7,0 0,25.7 0,76.2 				"/>
				<path id="XMLID_8683_" class="st1" d="M949.4,76.2l50.6-50.6v50.6H949.4z M1000-76.2v50.6l-50.6-50.6H1000z"/>
				<polygon id="XMLID_8678_" class="st1" points="176.2,0 100,-76.2 49.4,-76.2 125.7,0 49.4,76.2 100,76.2 				"/>
				<polygon id="XMLID_8676_" class="st1" points="276.2,0 200,-76.2 149.4,-76.2 225.7,0 149.4,76.2 200,76.2 				"/>
				<polygon id="XMLID_8675_" class="st1" points="376.2,0 300,-76.2 249.4,-76.2 325.7,0 249.4,76.2 300,76.2 				"/>
				<polygon id="XMLID_8674_" class="st1" points="476.2,0 400,-76.2 349.4,-76.2 425.7,0 349.4,76.2 400,76.2 				"/>
				<polygon id="XMLID_8673_" class="st1" points="576.2,0 500,-76.2 449.4,-76.2 525.7,0 449.4,76.2 500,76.2 				"/>
				<polygon id="XMLID_8628_" class="st1" points="676.2,0 600,-76.2 549.4,-76.2 625.7,0 549.4,76.2 600,76.2 				"/>
				<polygon id="XMLID_8627_" class="st1" points="776.2,0 700,-76.2 649.4,-76.2 725.7,0 649.4,76.2 700,76.2 				"/>
				<polygon id="XMLID_8626_" class="st1" points="876.2,0 800,-76.2 749.4,-76.2 825.7,0 749.4,76.2 800,76.2 				"/>
				<polygon id="XMLID_8625_" class="st1" points="976.2,0 900,-76.2 849.4,-76.2 925.7,0 849.4,76.2 900,76.2 				"/>
			</g>
			<g id="XMLID_5761_">
				<polygon id="XMLID_8623_" class="st1" points="1076.2,0 1000,-76.2 1000,-25.7 1025.7,0 1000,25.7 1000,76.2 				"/>
				<path id="XMLID_8620_" class="st1" d="M1949.4,76.2l50.6-50.6v50.6H1949.4z M2000-76.2v50.6l-50.6-50.6H2000z"/>
				<polygon id="XMLID_8619_" class="st1" points="1176.2,0 1100,-76.2 1049.4,-76.2 1125.7,0 1049.4,76.2 1100,76.2 				"/>
				<polygon id="XMLID_8618_" class="st1" points="1276.2,0 1200,-76.2 1149.4,-76.2 1225.7,0 1149.4,76.2 1200,76.2 				"/>
				<polygon id="XMLID_8617_" class="st1" points="1376.2,0 1300,-76.2 1249.4,-76.2 1325.7,0 1249.4,76.2 1300,76.2 				"/>
				<polygon id="XMLID_5775_" class="st1" points="1476.2,0 1400,-76.2 1349.4,-76.2 1425.7,0 1349.4,76.2 1400,76.2 				"/>
				<polygon id="XMLID_5773_" class="st1" points="1576.2,0 1500,-76.2 1449.4,-76.2 1525.7,0 1449.4,76.2 1500,76.2 				"/>
				<polygon id="XMLID_5772_" class="st1" points="1676.2,0 1600,-76.2 1549.4,-76.2 1625.7,0 1549.4,76.2 1600,76.2 				"/>
				<polygon id="XMLID_5771_" class="st1" points="1776.2,0 1700,-76.2 1649.4,-76.2 1725.7,0 1649.4,76.2 1700,76.2 				"/>
				<polygon id="XMLID_5770_" class="st1" points="1876.2,0 1800,-76.2 1749.4,-76.2 1825.7,0 1749.4,76.2 1800,76.2 				"/>
				<polygon id="XMLID_5763_" class="st1" points="1976.2,0 1900,-76.2 1849.4,-76.2 1925.7,0 1849.4,76.2 1900,76.2 				"/>
			</g>
		</g>
	</g>
</symbol>
<g id="Layer_2">
</g>
<g id="Layer_28">
	<polygon class="st2" points="0,0 595.3,598.6 595.3,841.7 0,841.7 	"/>
	<path id="Combined-Shape_00000173861382346187684490000013213517793702365597_" class="st2" d="M323.8,79.8
		c56.7-56.7,148.6-56.7,205.3,0c41.5,41.5,53.9,104,31.5,158.2s-75.4,89.6-134.1,89.6c-58.7,0-111.7-35.4-134.1-89.6
		C269.9,183.8,282.3,121.4,323.8,79.8z M400.7,184.1h-68.2l92.1,92.1V208L400.7,184.1z M505.9,141.3L439.1,208v68.2l67.2-67.2
		L505.9,141.3z M399.7,102.4l-67.2,67.2h68.2l66.8-66.8L399.7,102.4z"/>
	<polygon class="st3" points="166.4,841.8 595.3,416.8 595.3,841.7 	"/>
</g>
</svg>
