<svg xmlns="http://www.w3.org/2000/svg" width="1520" height="152" fill="none"><path fill="#F2EED8" d="M263 24a73 73 0 0 0-119 80 73 73 0 1 0 119-80Zm-53 99-46-46h34l12 12v34Zm-12-53h-34l34-34h34l-34 34Zm20 53V89l33-34 1 34-34 34ZM510 6h-34v139h34V6ZM600 32c15 0 26 4 34 9l2-29c-8-5-22-9-40-9-36 0-75 25-75 73s39 72 75 72c17 0 29-2 37-7l3-30c-8 5-19 8-35 8-26 0-46-17-46-43s20-44 45-44ZM710 75l49-69h-37l-43 60V6h-34v139h34V88l42 57h39l-50-70ZM424 63l-7 27-8-28-18-56h-29l-18 57-8 27-7-27-19-57h-32l46 140h22l20-61 9-31h1l9 31 20 61h22l35-106-23-23-15 46ZM92 61H38V7l-1-1H4v139h34V90h54v55h33V6H92v55Z"/><path fill="#FFA200" d="M841 30v43h24c7 0 12-2 16-6s6-9 6-15c0-7-2-12-6-16s-9-6-16-6h-24Zm24 68h-24v48h-33V5h57c17 0 30 5 40 13s15 20 15 34-5 25-15 33c-10 9-23 13-40 13ZM1022 89V63c0-10-3-19-7-25-5-6-12-9-20-9-9 0-16 3-21 9-4 6-7 15-7 25v26c0 10 3 18 8 25 4 6 11 9 20 9 8 0 15-3 20-9 4-7 7-15 7-25Zm32-26v26c0 17-5 31-16 42a58 58 0 0 1-43 17c-18 0-32-5-44-17a58 58 0 0 1-16-42V63c0-11 2-22 7-31s12-16 21-21c10-5 20-8 32-8 17 0 32 6 43 17s16 26 16 43ZM1106 146h-33V5h55c16 0 29 4 38 11 10 8 15 18 15 31 0 15-8 25-23 32 8 2 14 6 18 12 4 5 6 13 6 21v9l2 14c1 4 3 7 6 9v2h-34c-4-3-6-12-6-25v-8c0-7-2-12-6-16-3-3-9-5-15-5h-23v54Zm0-116v37h22c6 0 11-2 15-4 3-3 5-8 5-14 0-5-2-10-5-13-4-4-9-6-15-6h-22ZM1297 5v25h-37v116h-32V30h-37V5h106ZM1383 146l-8-27h-44l-8 27h-33l45-141h35l46 141h-33Zm-30-103-15 50h30l-15-50ZM1459 5v116h60v25h-93V5h33Z"/></svg>